<svg xmlns="http://www.w3.org/2000/svg" width="96" height="96" viewBox="0 0 96 96" fill="none"><path d="M61.4437 35.0237C61.3331 35.0329 61.2224 35.0552 61.1144 35.0912L57.7702 36.2059C57.4218 36.322 57.041 36.2985 56.7118 36.136C55.9494 35.7598 55.1593 35.4315 54.3453 35.1548C53.9981 35.0368 53.7127 34.7843 53.5486 34.4562L51.9727 31.3045C51.7346 30.828 51.2476 30.5271 50.7149 30.5271H45.2849C44.7523 30.5271 44.2653 30.828 44.0272 31.3045L42.4513 34.4562C42.2872 34.7843 42.002 35.0368 41.6546 35.1548C40.8404 35.4313 40.0503 35.7597 39.2881 36.136C38.9587 36.2985 38.5781 36.322 38.2297 36.2059L34.8854 35.0912C34.3801 34.9229 33.8231 35.0543 33.4464 35.431L29.6068 39.2706C29.2301 39.6473 29.0986 40.2044 29.267 40.7097L30.3817 44.0539C30.4979 44.4023 30.4743 44.7831 30.3118 45.1124C29.9356 45.8747 29.6073 46.6648 29.3306 47.4788C29.2126 47.826 28.9601 48.1114 28.6319 48.2755L25.4803 49.8514C25.0038 50.0895 24.7029 50.5765 24.7029 51.1092V56.5392C24.7029 57.0719 25.0038 57.5588 25.4803 57.7969L28.6319 59.3729C28.9601 59.5369 29.2126 59.8221 29.3306 60.1695C29.6071 60.9837 29.9354 61.7738 30.3118 62.536C30.4743 62.8654 30.4978 63.246 30.3817 63.5944L29.267 66.9387C29.0986 67.444 29.2301 68.001 29.6068 68.3777L33.4464 72.2174C33.8231 72.594 34.3801 72.7255 34.8854 72.5571L38.2297 71.4424C38.5781 71.3262 38.9589 71.3498 39.2881 71.5123C40.0505 71.8885 40.8406 72.2168 41.6546 72.4935C42.0018 72.6115 42.2872 72.864 42.4513 73.1922L44.0272 76.3439C44.2653 76.8203 44.7523 77.1212 45.2849 77.1212H50.7149C51.2476 77.1212 51.7346 76.8203 51.9727 76.3439L53.5486 73.1922C53.7127 72.864 53.9979 72.6115 54.3453 72.4935C55.1594 72.217 55.9496 71.8887 56.7118 71.5123C57.0412 71.3498 57.4218 71.3264 57.7702 71.4424L61.1144 72.5571C61.6198 72.7255 62.1768 72.594 62.5535 72.2174L66.3931 68.3777C66.7698 68.001 66.9013 67.444 66.7329 66.9387L65.6182 63.5944C65.5019 63.246 65.5256 62.8652 65.6881 62.536C66.0643 61.7736 66.3926 60.9835 66.6693 60.1695C66.7873 59.8223 67.0398 59.5369 67.3679 59.3729L70.5196 57.7969C70.9961 57.5588 71.297 57.0719 71.297 56.5392V51.1092C71.297 50.5765 70.9961 50.0895 70.5196 49.8514L67.3679 48.2755C67.0398 48.1114 66.7873 47.8262 66.6693 47.4788C66.3928 46.6647 66.0644 45.8745 65.6881 45.1124C65.5256 44.7829 65.5021 44.4023 65.6182 44.0539L66.7329 40.7097C66.9013 40.2044 66.7698 39.6473 66.3931 39.2706" stroke="#636EDF" stroke-miterlimit="10" stroke-linecap="round" stroke-linejoin="round"/><path d="M39.2636 48L33.4395 53.8241L39.2636 59.6484" stroke="#636EDF" stroke-miterlimit="10" stroke-linecap="round" stroke-linejoin="round"/><path d="M56.7363 48L62.5605 53.8241L56.7363 59.6484" stroke="#636EDF" stroke-miterlimit="10" stroke-linecap="round" stroke-linejoin="round"/><path d="M50.912 48L45.0879 59.6484" stroke="#636EDF" stroke-miterlimit="10" stroke-linecap="round" stroke-linejoin="round"/><path d="M23.6936 85.8573H89.9062C92.495 85.8573 94.5937 83.7586 94.5937 81.1698V21.791" stroke="black" stroke-miterlimit="10" stroke-linecap="round" stroke-linejoin="round"/><path d="M1.40625 21.791V81.17C1.40625 83.7588 3.50494 85.8575 6.09375 85.8575H17.1311" stroke="black" stroke-miterlimit="10" stroke-linecap="round" stroke-linejoin="round"/><path d="M10.4349 10.1426H6.09375C3.50494 10.1426 1.40625 12.2413 1.40625 14.8301V21.791H94.5938V14.8301C94.5938 12.2413 92.4951 10.1426 89.9062 10.1426H16.9974" stroke="black" stroke-miterlimit="10" stroke-linecap="round" stroke-linejoin="round"/><circle cx="88.7695" cy="15.9668" r="1.40625" fill="black"/><circle cx="82.9453" cy="15.9668" r="1.40625" fill="black"/><circle cx="77.1211" cy="15.9668" r="1.40625" fill="black"/></svg>