<svg xmlns="http://www.w3.org/2000/svg" width="96" height="96" viewBox="0 0 96 96" fill="none" class=""><g clip-path="url(#clip0_42_379)"><mask id="mask0_42_379" style="mask-type:luminance" maskUnits="userSpaceOnUse" x="0" y="0" width="96" height="96"><path d="M0 7.62939e-06H96V96H0V7.62939e-06Z" fill="white"/></mask><g mask="url(#mask0_42_379)"><path d="M5.15625 45.395V8.99208" stroke="black" stroke-miterlimit="10" stroke-linecap="round" stroke-linejoin="round"/><path d="M5.15625 87.0518V50.589" stroke="black" stroke-miterlimit="10" stroke-linecap="round" stroke-linejoin="round"/><path d="M45.4188 90.8438H8.95996" stroke="black" stroke-miterlimit="10" stroke-linecap="round" stroke-linejoin="round"/><path d="M72.0879 90.8438H50.5649" stroke="black" stroke-miterlimit="10" stroke-linecap="round" stroke-linejoin="round"/><path d="M87.0478 90.8438H78.6611" stroke="black" stroke-miterlimit="10" stroke-linecap="round" stroke-linejoin="round"/><path d="M90.8438 50.5532V87.0598" stroke="black" stroke-miterlimit="10" stroke-linecap="round" stroke-linejoin="round"/><path d="M90.8438 8.92815V45.4548" stroke="black" stroke-miterlimit="10" stroke-linecap="round" stroke-linejoin="round"/><path d="M50.5571 5.15625H87.0718" stroke="black" stroke-miterlimit="10" stroke-linecap="round" stroke-linejoin="round"/><path d="M24.8613 5.15625H45.4387" stroke="black" stroke-miterlimit="10" stroke-linecap="round" stroke-linejoin="round"/><path d="M8.96411 5.15625H18.1" stroke="black" stroke-miterlimit="10" stroke-linecap="round" stroke-linejoin="round"/><path d="M8.90625 1.40625H1.40625V8.90625H8.90625V1.40625Z" stroke="black" stroke-miterlimit="10" stroke-linecap="round" stroke-linejoin="round"/><path d="M94.5937 1.40625H87.0938V8.90625H94.5937V1.40625Z" stroke="black" stroke-miterlimit="10" stroke-linecap="round" stroke-linejoin="round"/><path d="M93.375 45.4688H88.3125V50.5312H93.375V45.4688Z" stroke="black" stroke-miterlimit="10" stroke-linecap="round" stroke-linejoin="round"/><path d="M7.6875 45.4688H2.625V50.5312H7.6875V45.4688Z" stroke="black" stroke-miterlimit="10" stroke-linecap="round" stroke-linejoin="round"/><path d="M50.5312 2.625H45.4688V7.6875H50.5312V2.625Z" stroke="black" stroke-miterlimit="10" stroke-linecap="round" stroke-linejoin="round"/><path d="M50.5312 88.3125H45.4688V93.375H50.5312V88.3125Z" stroke="black" stroke-miterlimit="10" stroke-linecap="round" stroke-linejoin="round"/><path d="M8.90625 87.0938H1.40625V94.5938H8.90625V87.0938Z" stroke="black" stroke-miterlimit="10" stroke-linecap="round" stroke-linejoin="round"/><path d="M94.5937 87.0938H87.0938V94.5938H94.5937V87.0938Z" stroke="black" stroke-miterlimit="10" stroke-linecap="round" stroke-linejoin="round"/><path d="M55.1576 33.1568L49.8577 18.048C49.568 17.2268 48.845 16.6498 47.9988 16.5336C47.8983 16.5199 47.7957 16.5131 47.6907 16.5131H39.1857C38.2119 16.5131 37.3428 17.1289 37.019 18.048L15.8964 78.2638C15.6864 78.8614 16.1313 79.4863 16.763 79.4863H23.7378C24.2396 79.4863 24.7139 79.3221 25.0994 79.0391C25.4529 78.7793 25.7311 78.4189 25.8909 77.9901L26.873 75.3473M29.1736 69.1566L30.3247 66.0593H56.5839L60.9719 77.9833C61.3029 78.8865 62.165 79.4863 63.1274 79.4863H70.1135C70.4534 79.4863 70.7409 79.3061 70.8982 79.0438C71.0351 78.8201 71.0761 78.5396 70.9803 78.2638L57.3382 39.3733M33.3856 56.6828L43.4394 27.8351L48.0147 40.8814L53.5572 56.6828H33.3856Z" stroke="#636EDF" stroke-miterlimit="10" stroke-linecap="round" stroke-linejoin="round"/><path d="M39.448 66.0593L35.0142 77.9901C34.6788 78.8888 33.8214 79.4863 32.8612 79.4863H23.7378" stroke="#636EDF" stroke-miterlimit="10" stroke-linecap="round" stroke-linejoin="round"/><path d="M48.0147 40.8815L42.5088 56.6829" stroke="#636EDF" stroke-miterlimit="10" stroke-linecap="round" stroke-linejoin="round"/><path d="M47.6909 16.5131H48.3091H56.8143C57.7882 16.5131 58.657 17.1289 58.981 18.0482L80.1037 78.2638C80.3135 78.8614 79.871 79.4863 79.2369 79.4863H70.1137" stroke="#636EDF" stroke-miterlimit="10" stroke-linecap="round" stroke-linejoin="round"/></g></g><defs><clipPath id="clip0_42_379"><rect width="96" height="96" fill="white"/></clipPath></defs></svg>