<svg xmlns="http://www.w3.org/2000/svg" width="96" height="96" viewBox="0 0 96 96" fill="none"><path d="M48 63.6343C51.1066 63.6343 53.625 61.1159 53.625 58.0093C53.625 54.9027 51.1066 52.3843 48 52.3843C44.8934 52.3843 42.375 54.9027 42.375 58.0093C42.375 61.1159 44.8934 63.6343 48 63.6343Z" stroke="black" stroke-miterlimit="10" stroke-linecap="round" stroke-linejoin="round"/><path d="M48 52.3842V29.6067" stroke="black" stroke-miterlimit="10" stroke-linecap="round" stroke-linejoin="round"/><path d="M47.9999 29.6067H57.3749L70.198 64.3954C70.198 64.3954 61.5841 71.6973 60.2397 80.0626H35.7601C34.4157 71.6973 25.8018 64.3954 25.8018 64.3954L38.6249 29.6067H47.9999Z" stroke="black" stroke-miterlimit="10" stroke-linecap="round" stroke-linejoin="round"/><path d="M30.2407 80.0625H65.7592" stroke="black" stroke-miterlimit="10" stroke-linecap="round" stroke-linejoin="round"/><path d="M60.2008 80.0625H35.7986V93.1875H60.2008V80.0625Z" stroke="black" stroke-miterlimit="10" stroke-linecap="round" stroke-linejoin="round"/><path d="M53.625 8.4375C53.625 11.5442 51.1067 14.0625 48 14.0625C44.8933 14.0625 42.375 11.5442 42.375 8.4375C42.375 5.33081 44.8933 2.8125 48 2.8125C51.1067 2.8125 53.625 5.33081 53.625 8.4375Z" stroke="#636EDF" stroke-miterlimit="10" stroke-linecap="round" stroke-linejoin="round"/><path d="M8.4375 53.625C5.33081 53.625 2.8125 51.1067 2.8125 48C2.8125 44.8933 5.33081 42.375 8.4375 42.375C11.5442 42.375 14.0625 44.8933 14.0625 48C14.0625 51.1067 11.5442 53.625 8.4375 53.625Z" stroke="#636EDF" stroke-miterlimit="10" stroke-linecap="round" stroke-linejoin="round"/><path d="M87.5625 53.625C84.4558 53.625 81.9375 51.1067 81.9375 48C81.9375 44.8933 84.4558 42.375 87.5625 42.375C90.6692 42.375 93.1875 44.8933 93.1875 48C93.1875 51.1067 90.6692 53.625 87.5625 53.625Z" stroke="#636EDF" stroke-miterlimit="10" stroke-linecap="round" stroke-linejoin="round"/><path d="M8.83496 42.375C11.3043 25.0275 25.0275 11.3043 42.375 8.83496H8.83496" stroke="#636EDF" stroke-miterlimit="10" stroke-linecap="round" stroke-linejoin="round"/><path d="M87.165 42.375C84.6956 25.0275 70.9725 11.3043 53.625 8.83496H87.165" stroke="#636EDF" stroke-miterlimit="10" stroke-linecap="round" stroke-linejoin="round"/></svg>