<svg xmlns="http://www.w3.org/2000/svg" width="155" height="30" viewBox="0 0 155 30" fill="none"><path d="M134.8 29.723V1.70182H140.356V16.8601H143.094L148.214 8.86541H154.444L147.777 18.7995L155 29.723H148.571L143.332 21.8074H140.356V29.723H134.8Z" fill="black"></path><path d="M121.881 30C119.738 30 117.899 29.5646 116.365 28.6939C114.857 27.8232 113.706 26.5963 112.912 25.0132C112.118 23.4037 111.721 21.5171 111.721 19.3535C111.721 17.1636 112.132 15.2638 112.952 13.6543C113.772 12.0184 114.949 10.7519 116.484 9.85485C118.045 8.95775 119.923 8.5092 122.119 8.5092C123.812 8.5092 125.321 8.81263 126.643 9.41949C127.966 10.0264 129.025 10.8971 129.818 12.0316C130.638 13.1662 131.115 14.5646 131.247 16.2269H125.81C125.572 15.3034 125.109 14.6306 124.421 14.2084C123.76 13.7862 122.966 13.5752 122.04 13.5752C120.849 13.5752 119.897 13.8654 119.182 14.4459C118.495 15.0264 117.992 15.7651 117.674 16.6622C117.383 17.5593 117.238 18.4564 117.238 19.3535C117.238 20.3298 117.397 21.2533 117.714 22.124C118.032 22.9683 118.534 23.6675 119.222 24.2216C119.936 24.7493 120.862 25.0132 122 25.0132C122.953 25.0132 123.786 24.8021 124.5 24.3799C125.215 23.9314 125.678 23.2454 125.889 22.3219H131.445C131.313 24.0369 130.797 25.4617 129.898 26.5963C128.998 27.7309 127.847 28.5884 126.445 29.1688C125.069 29.7229 123.548 30 121.881 30Z" fill="black"></path><path d="M98.8647 30C96.6687 30 94.8035 29.5646 93.269 28.6939C91.7344 27.8232 90.5571 26.5963 89.7369 25.0132C88.9167 23.4037 88.5066 21.5303 88.5066 19.3931C88.5066 17.2295 88.93 15.343 89.7766 13.7335C90.6232 12.0976 91.8138 10.8179 93.3483 9.89442C94.9093 8.97094 96.7481 8.5092 98.8647 8.5092C100.452 8.5092 101.841 8.77305 103.032 9.30076C104.249 9.82846 105.267 10.5672 106.088 11.5171C106.934 12.467 107.556 13.5752 107.953 14.8417C108.376 16.0818 108.575 17.4274 108.548 18.8786C108.548 19.248 108.535 19.6042 108.508 19.9472C108.482 20.2902 108.429 20.6332 108.35 20.9762H94.023C94.1024 21.7678 94.3273 22.4934 94.6977 23.153C95.0681 23.8126 95.584 24.3403 96.2454 24.7361C96.9333 25.1055 97.7799 25.2902 98.7853 25.2902C99.4468 25.2902 100.055 25.2243 100.611 25.0923C101.166 24.934 101.643 24.6966 102.04 24.3799C102.436 24.0633 102.714 23.6939 102.873 23.2717H108.35C108.006 24.8285 107.358 26.1082 106.405 27.1108C105.479 28.1134 104.355 28.8522 103.032 29.3272C101.709 29.7757 100.32 30 98.8647 30ZM94.1421 17.0976H103.23C103.204 16.3852 103.019 15.7256 102.675 15.1187C102.357 14.4855 101.868 13.9841 101.206 13.6147C100.571 13.219 99.751 13.0211 98.7456 13.0211C97.7403 13.0211 96.8936 13.219 96.2057 13.6147C95.5443 14.0105 95.0416 14.525 94.6977 15.1583C94.3802 15.7651 94.195 16.4116 94.1421 17.0976Z" fill="black"></path><path d="M81.0903 30C78.7356 30 76.9894 29.3403 75.8517 28.0211C74.7405 26.7018 74.1849 24.8944 74.1849 22.5989V13.8126H71.0497V8.86537H74.1849V3.24531H79.741V8.86537H86.0907V13.8126H79.741V21.4511C79.741 22.1372 79.8203 22.7308 79.9791 23.2321C80.1643 23.7335 80.4553 24.1292 80.8522 24.4195C81.2755 24.6833 81.8443 24.8153 82.5587 24.8153C83.1936 24.8153 83.7228 24.7229 84.1461 24.5382C84.5959 24.3271 84.9663 24.1029 85.2573 23.8654L87.0035 28.1398C86.4479 28.5883 85.8262 28.9577 85.1383 29.248C84.4768 29.5118 83.8022 29.6965 83.1143 29.8021C82.4264 29.934 81.7517 30 81.0903 30Z" fill="black"></path><path d="M62.5975 29.723V8.86545H68.1535V29.723H62.5975ZM65.3755 6.76782C64.3436 6.76782 63.5102 6.46439 62.8753 5.85753C62.2403 5.22428 61.9228 4.41953 61.9228 3.44328C61.9228 2.41425 62.2535 1.58312 62.9149 0.949869C63.5764 0.316623 64.4098 0 65.4152 0C66.3412 0 67.1349 0.316623 67.7963 0.949869C68.4842 1.55673 68.8282 2.37467 68.8282 3.4037C68.8282 4.40634 68.4974 5.22428 67.836 5.85753C67.201 6.46439 66.3809 6.76782 65.3755 6.76782Z" fill="black"></path><path d="M46.4056 30C44.289 30 42.5296 29.5251 41.1274 28.5752C39.7516 27.5989 38.7197 26.3061 38.0318 24.6966C37.3439 23.0607 37 21.2533 37 19.2744C37 17.19 37.3704 15.343 38.1112 13.7335C38.852 12.0976 39.95 10.8179 41.4052 9.89444C42.8603 8.97095 44.6726 8.50921 46.8421 8.50921C47.583 8.50921 48.3105 8.60156 49.0249 8.78626C49.7657 8.94457 50.4404 9.19523 51.0489 9.53824C51.6838 9.85486 52.2262 10.277 52.676 10.8047V1.70182H58.2321V29.723H52.8347L52.7554 27.3879C52.2791 27.9947 51.6971 28.496 51.0092 28.8918C50.3477 29.2612 49.6334 29.5383 48.8661 29.723C48.0989 29.9077 47.2787 30 46.4056 30ZM47.5168 25.0132C48.7074 25.0132 49.6731 24.7361 50.4139 24.1821C51.1812 23.628 51.75 22.9156 52.1204 22.0448C52.4908 21.1741 52.676 20.2375 52.676 19.2348C52.676 18.2058 52.4908 17.2691 52.1204 16.4248C51.7764 15.5541 51.2208 14.8681 50.4536 14.3667C49.7128 13.839 48.7338 13.5752 47.5168 13.5752C46.2998 13.5752 45.3208 13.8522 44.58 14.4063C43.8392 14.9604 43.3101 15.686 42.9926 16.5831C42.7016 17.4538 42.5561 18.3905 42.5561 19.3931C42.5561 20.1319 42.6354 20.8443 42.7942 21.5303C42.9794 22.19 43.2704 22.7836 43.6673 23.3113C44.0641 23.839 44.58 24.2612 45.215 24.5778C45.85 24.8681 46.6173 25.0132 47.5168 25.0132Z" fill="black"></path><path d="M29.9267 1.41722C29.8407 1.0903 29.679 0.795394 29.4633 0.551046L29.4557 0.543463C29.2096 0.324393 28.9114 0.160932 28.5827 0.0724617C28.405 0.0252774 28.2187 0 28.0241 0H17.2464C16.0558 0 15.091 0.964752 15.091 2.15532V12.9386C15.0927 13.3262 14.9562 13.7003 14.6815 13.975L13.9771 14.6794C13.7024 14.9541 13.3283 15.0906 12.9407 15.0889H2.15622C2.01803 15.0889 1.88322 15.1015 1.75177 15.1268C0.986687 15.2726 0.364847 15.8203 0.118807 16.5423C0.0412875 16.7614 0 16.9982 0 17.2451V28.0233C0 28.2171 0.0252781 28.4042 0.0733064 28.5819C0.159252 28.9089 0.321031 29.2038 0.536738 29.4481L0.544321 29.4557C0.790361 29.6748 1.08864 29.8382 1.41726 29.9267C1.59505 29.9756 1.7821 30 1.9759 30H12.7545C13.9451 30 14.9098 29.0352 14.9098 27.8447V17.0597C14.9082 16.6721 15.0447 16.298 15.3193 16.0233L16.0238 15.3189C16.2984 15.0442 16.6726 14.9077 17.0602 14.9094H27.8438C27.982 14.9094 28.1168 14.8968 28.2482 14.8715C29.0133 14.7257 29.6352 14.1781 29.8812 13.456C29.9587 13.2369 30 13.0001 30 12.7533V1.97585C30 1.78205 29.9756 1.595 29.9267 1.41722Z" fill="#636EDF"></path></svg>