<svg xmlns="http://www.w3.org/2000/svg" width="163" height="48" viewBox="0 0 163 48" fill="none"><circle cx="16" cy="18" r="14" stroke="white" stroke-width="4"></circle><circle cx="24" cy="30" r="14" stroke="white" stroke-width="4"></circle><path d="M51.9502 33.9088H56.4802V12.9088H51.9502V33.9088Z" fill="white"></path><path d="M58.4677 33.9088H62.6677V25.6288C62.6677 23.6788 63.9577 22.2688 65.7877 22.2688C67.5277 22.2688 68.6977 23.5888 68.6977 25.4188V33.9088H72.8977V24.4888C72.8977 21.0088 70.6777 18.5488 67.2577 18.5488C65.1877 18.5488 63.5077 19.4188 62.6677 20.8888V18.7888H58.4677V33.9088Z" fill="white"></path><path d="M75.9392 14.3187V18.7888H73.0292V22.2688H75.9392V28.4188C75.9392 31.9288 78.1892 33.9088 81.6692 33.9088H84.1592V30.3988H82.2392C80.8892 30.3988 80.1092 29.7088 80.1092 28.2388V22.2688H84.1592V18.7888H80.1092V14.3187H75.9392Z" fill="white"></path><path d="M94.7574 28.7788C94.4274 30.0688 93.3174 30.7288 91.6374 30.7288C89.5374 30.7288 88.1874 29.4088 87.8874 27.2788H98.7474C98.7774 26.9488 98.8074 26.4988 98.8074 25.9288C98.8074 22.4788 96.6774 18.5488 91.3374 18.5488C86.2074 18.5488 83.8674 22.4788 83.8674 26.3188C83.8674 30.1288 86.5074 34.1488 91.6374 34.1488C95.3574 34.1488 98.2374 32.0488 98.8374 28.7788H94.7574ZM91.3374 21.6088C93.3474 21.6088 94.5174 22.9588 94.6374 24.6388H87.9474C88.3074 22.5388 89.4474 21.6088 91.3374 21.6088Z" fill="white"></path><path d="M109.302 22.2688V18.7888H107.592C105.762 18.7888 104.622 19.4188 103.812 21.3088V18.7888H99.6122V33.9088H103.812V26.5588C103.812 23.9788 104.742 22.2688 106.812 22.2688H109.302Z" fill="white"></path><path d="M109.983 33.9088H114.153V12.2188H109.983V33.9088Z" fill="white"></path><path d="M123.148 34.1488C127.798 34.1488 131.128 30.8488 131.128 26.3488C131.128 21.8488 127.798 18.5488 123.148 18.5488C118.498 18.5488 115.168 21.8488 115.168 26.3488C115.168 30.8488 118.498 34.1488 123.148 34.1488ZM123.148 30.5488C120.898 30.5488 119.368 28.8388 119.368 26.3488C119.368 23.8288 120.898 22.1188 123.148 22.1188C125.398 22.1188 126.928 23.8288 126.928 26.3488C126.928 28.8388 125.398 30.5488 123.148 30.5488Z" fill="white"></path><path d="M138.929 34.1488C142.859 34.1488 145.979 31.6288 146.429 28.2688H142.169C141.869 29.6188 140.639 30.5488 139.109 30.5488C136.829 30.5488 135.479 28.8088 135.479 26.3488C135.479 23.8888 136.799 22.1188 139.049 22.1188C140.579 22.1188 141.869 23.1088 142.109 24.4588H146.309C146.039 20.9488 142.889 18.5488 138.929 18.5488C134.249 18.5488 131.129 21.9388 131.129 26.3488C131.129 30.7588 134.249 34.1488 138.929 34.1488Z" fill="white"></path><path d="M157.46 33.9088H162.5L155.99 24.7288L162.02 18.7888H156.74L151.49 23.9488V12.2188H147.29V33.9088H151.49V29.1688L153.17 27.5188L157.46 33.9088Z" fill="white"></path></svg>