<svg xmlns="http://www.w3.org/2000/svg" width="32" height="32" viewBox="0 0 32 32"><path d="M31.922 1.512c-0.092-0.349-0.264-0.663-0.494-0.924l-0.008-0.008c-0.262-0.234-0.581-0.408-0.931-0.502-0.19-0.050-0.388-0.077-0.596-0.077h-11.496c-1.27 0-2.299 1.029-2.299 2.299v11.502c0.002 0.413-0.144 0.812-0.437 1.105l-0.751 0.751c-0.293 0.293-0.692 0.439-1.105 0.437h-11.503c-0.147 0-0.291 0.013-0.431 0.040-0.816 0.156-1.479 0.74-1.742 1.51-0.083 0.234-0.127 0.486-0.127 0.75v11.497c0 0.207 0.027 0.406 0.078 0.596 0.092 0.349 0.264 0.663 0.494 0.924l0.008 0.008c0.262 0.234 0.581 0.408 0.931 0.502 0.19 0.052 0.389 0.078 0.596 0.078h11.497c1.27 0 2.299-1.029 2.299-2.299v-11.504c-0.002-0.413 0.144-0.812 0.437-1.105l0.751-0.751c0.293-0.293 0.692-0.439 1.105-0.437h11.503c0.147 0 0.291-0.013 0.431-0.040 0.816-0.156 1.479-0.74 1.742-1.51 0.083-0.234 0.127-0.486 0.127-0.75v-11.496c0-0.207-0.026-0.406-0.078-0.596z"/></svg>